# xmcd
# 
# Track frame offsets:
#     150
#     13769
#     30968
#     43922
#     59538
#     82480
#     101461
#     122312
#     132268
#     155146
#     174894
#     187791
#     202723
#     220718
#     237079
#     257534
#     268612
# 
# Disc length: 3829
# 
# Revision: 8
# Processed by: cddbd v1.5.2PL0 Copyright (c) Steve Scherf et al.
# Submitted via: fre:ac v1.0.31
# 
DISCID=db0ef311
DTITLE=Big Mama Thornton - With the Muddy Waters Blues Band - 1966
DYEAR=2004
DGENRE=Blues
TTITLE0=I'm Feeling Alright
TTITLE1=Sometimes I Have a Heartache
TTITLE2=Black Rat (Take 4)
TTITLE3=Life Goes On
TTITLE4=Everything Gonna Be Alright
TTITLE5=Big Mama's Bumble Bee Blues
TTITLE6=Gimme a Penny (Take 6)
TTITLE7=Looking the World Over
TTITLE8=I Feel the Way I Feel
TTITLE9=Guide Me Home
TTITLE10=Black Rat (Take 2)
TTITLE11=Wrapped Tight
TTITLE12=Gimme a Penny (Take 5)
TTITLE13=Big Mama's Shuffle
TTITLE14=Since I Fell for You
TTITLE15=I'm Feeling Alright (Fast Version)
TTITLE16=Big Mama's Blues (My Love)
EXTD=Expanded CD Issued 2004
EXTT0=
EXTT1=
EXTT2=
EXTT3=
EXTT4=
EXTT5=
EXTT6=
EXTT7=
EXTT8=
EXTT9=
EXTT10=
EXTT11=
EXTT12=
EXTT13=
EXTT14=
EXTT15=
EXTT16=
PLAYORDER=
